<svg id="visual" viewBox="0 0 900 600" width="900" height="600" xmlns="http://www.w3.org/2000/svg" xmlns:xlink="http://www.w3.org/1999/xlink" version="1.1"><rect x="0" y="0" width="900" height="600" fill="#001220"></rect><defs><linearGradient id="grad1_0" x1="33.3%" y1="0%" x2="100%" y2="100%"><stop offset="20%" stop-color="#001220" stop-opacity="1"></stop><stop offset="80%" stop-color="#001220" stop-opacity="1"></stop></linearGradient></defs><defs><linearGradient id="grad2_0" x1="0%" y1="0%" x2="66.7%" y2="100%"><stop offset="20%" stop-color="#001220" stop-opacity="1"></stop><stop offset="80%" stop-color="#001220" stop-opacity="1"></stop></linearGradient></defs><g transform="translate(900, 0)"><path d="M0 459.7C-58.2 442.7 -116.3 425.7 -165.3 399.1C-214.3 372.6 -254.1 336.5 -299.8 299.8C-345.5 263.2 -397.1 226 -424.7 175.9C-452.3 125.9 -456 62.9 -459.7 0L0 0Z" fill="#FBAE3C"></path></g><g transform="translate(0, 600)"><path d="M0 -459.7C53.6 -437.9 107.3 -416.1 164.6 -397.3C221.8 -378.5 282.8 -362.7 325.1 -325.1C367.3 -287.4 390.9 -227.7 410.2 -169.9C429.5 -112.1 444.6 -56 459.7 0L0 0Z" fill="#FBAE3C"></path></g></svg>