<svg id="visual" viewBox="0 0 900 600" width="900" height="600" xmlns="http://www.w3.org/2000/svg" xmlns:xlink="http://www.w3.org/1999/xlink" version="1.1"><rect x="0" y="0" width="900" height="600" fill="#001220"></rect><defs><linearGradient id="grad1_0" x1="33.3%" y1="100%" x2="100%" y2="0%"><stop offset="20%" stop-color="#001220" stop-opacity="1"></stop><stop offset="80%" stop-color="#001220" stop-opacity="1"></stop></linearGradient></defs><defs><linearGradient id="grad2_0" x1="0%" y1="100%" x2="66.7%" y2="0%"><stop offset="20%" stop-color="#001220" stop-opacity="1"></stop><stop offset="80%" stop-color="#001220" stop-opacity="1"></stop></linearGradient></defs><g transform="translate(900, 600)"><path d="M-459.7 0C-442.7 -58.2 -425.7 -116.3 -399.1 -165.3C-372.6 -214.3 -336.5 -254.1 -299.8 -299.8C-263.2 -345.5 -226 -397.1 -175.9 -424.7C-125.9 -452.3 -62.9 -456 0 -459.7L0 0Z" fill="#FBAE3C"></path></g><g transform="translate(0, 0)"><path d="M459.7 0C437.9 53.6 416.1 107.3 397.3 164.6C378.5 221.8 362.7 282.8 325.1 325.1C287.4 367.3 227.7 390.9 169.9 410.2C112.1 429.5 56 444.6 0 459.7L0 0Z" fill="#FBAE3C"></path></g></svg>