<svg id="visual" viewBox="0 0 900 600" width="900" height="600" xmlns="http://www.w3.org/2000/svg" xmlns:xlink="http://www.w3.org/1999/xlink" version="1.1"><rect width="900" height="600" fill="#120b0b"></rect><g><g transform="translate(433 448)"><path d="M89.4 -28.1C101.8 8.9 87.9 55.5 55.8 79.4C23.7 103.3 -26.6 104.6 -59.7 80.9C-92.8 57.2 -108.6 8.4 -95.8 -29.4C-82.9 -67.1 -41.5 -93.8 -1.5 -93.4C38.5 -92.9 77.1 -65.2 89.4 -28.1Z" stroke="#F7760E" fill="none" stroke-width="1"></path></g><g transform="translate(730 246)"><path d="M68.1 -23.8C76 2.3 61.8 33.9 39.4 48.8C17 63.8 -13.5 62.2 -36.6 46.4C-59.6 30.6 -75.2 0.5 -67.9 -24.7C-60.5 -50 -30.3 -70.5 -0.1 -70.4C30.1 -70.4 60.2 -49.9 68.1 -23.8Z" stroke="#F7760E" fill="none" stroke-width="1"></path></g><g transform="translate(220 226)"><path d="M58.3 -21.6C66 4.9 56.3 34.5 35.1 50.4C13.9 66.3 -18.8 68.5 -41.3 53.1C-63.8 37.6 -76.2 4.4 -67.6 -23.3C-59 -51 -29.5 -73.2 -2.1 -72.5C25.3 -71.8 50.5 -48.2 58.3 -21.6Z" stroke="#F7760E" fill="none" stroke-width="1"></path></g></g></svg>