<svg id="visual" viewBox="0 0 900 600" width="900" height="600" xmlns="http://www.w3.org/2000/svg" xmlns:xlink="http://www.w3.org/1999/xlink" version="1.1"><rect width="900" height="600" fill="#120b0b"></rect><g><g transform="translate(604 424)"><path d="M92.7 -30.7C104.6 6.4 87.9 52.2 54.8 76.6C21.7 100.9 -27.9 103.7 -62 80.2C-96.1 56.6 -114.7 6.6 -101.8 -31.9C-88.9 -70.4 -44.5 -97.5 -2 -96.9C40.4 -96.2 80.9 -67.8 92.7 -30.7Z" stroke="#F7760E" fill="none" stroke-width="1"></path></g><g transform="translate(328 256)"><path d="M67.1 -23.5C77.5 10 69.7 47.6 46.8 64.3C23.9 80.9 -14.3 76.5 -40.8 57C-67.4 37.5 -82.4 2.9 -73.6 -28.4C-64.9 -59.7 -32.5 -87.7 -2 -87.1C28.4 -86.4 56.8 -57 67.1 -23.5Z" stroke="#F7760E" fill="none" stroke-width="1"></path></g></g></svg>