<svg id="visual" viewBox="0 0 900 600" width="900" height="600" xmlns="http://www.w3.org/2000/svg" xmlns:xlink="http://www.w3.org/1999/xlink" version="1.1"><rect width="900" height="600" fill="#120b0b"></rect><g><g transform="translate(413 227)"><path d="M82.4 -31.5C93.2 6.6 79.1 48 50.3 68.8C21.6 89.6 -21.9 89.7 -52.1 68.5C-82.4 47.3 -99.4 4.7 -88.6 -33.4C-77.7 -71.6 -38.8 -105.3 -1.5 -104.8C35.8 -104.3 71.5 -69.6 82.4 -31.5Z" stroke="#F7760E" fill="none" stroke-width="1"></path></g><g transform="translate(703 148)"><path d="M90.3 -32.1C101.6 5.6 84.9 49.7 53.2 72.5C21.6 95.3 -24.9 96.8 -55.9 74.8C-86.9 52.8 -102.4 7.2 -90.5 -31.2C-78.6 -69.7 -39.3 -101.1 0.1 -101.1C39.5 -101.1 78.9 -69.8 90.3 -32.1Z" stroke="#F7760E" fill="none" stroke-width="1"></path></g><g transform="translate(614 445)"><path d="M72.7 -27C81.9 4.5 68.3 40 42.9 58.3C17.4 76.7 -20 77.9 -45.9 59.9C-71.8 41.8 -86.1 4.6 -76.6 -27.5C-67 -59.5 -33.5 -86.4 -0.8 -86.1C31.8 -85.8 63.6 -58.4 72.7 -27Z" stroke="#F7760E" fill="none" stroke-width="1"></path></g></g></svg>