<svg id="visual" viewBox="0 0 900 600" width="900" height="600" xmlns="http://www.w3.org/2000/svg" xmlns:xlink="http://www.w3.org/1999/xlink" version="1.1"><rect width="900" height="600" fill="#120b0b"></rect><g><g transform="translate(306 174)"><path d="M85.7 -26.4C98.5 11.5 87.7 58.6 56.8 81.9C25.9 105.2 -24.9 104.7 -60.7 79.6C-96.5 54.5 -117.2 4.8 -104.6 -32.8C-92 -70.4 -46 -96 -4.8 -94.5C36.5 -92.9 72.9 -64.2 85.7 -26.4Z" stroke="#F7760E" fill="none" stroke-width="1"></path></g><g transform="translate(607 244)"><path d="M99.9 -27.9C113.1 8.4 96.4 59.1 63.6 81.5C30.8 103.9 -18.1 98.1 -51.5 73.3C-84.8 48.5 -102.7 4.7 -91.5 -28.7C-80.3 -62.1 -40.2 -85.1 1.6 -85.7C43.3 -86.2 86.6 -64.2 99.9 -27.9Z" stroke="#F7760E" fill="none" stroke-width="1"></path></g></g></svg>