<svg id="visual" viewBox="0 0 900 600" width="900" height="600" xmlns="http://www.w3.org/2000/svg" xmlns:xlink="http://www.w3.org/1999/xlink" version="1.1"><rect width="900" height="600" fill="#120b0b"></rect><g><g transform="translate(479 435)"><path d="M105.8 -33.9C119.5 7.8 100.9 60.6 65.5 85C30.2 109.5 -22 105.7 -56.2 80.2C-90.4 54.7 -106.8 7.3 -94.4 -32.5C-82.1 -72.4 -41 -104.8 2.5 -105.6C46 -106.4 92.1 -75.6 105.8 -33.9Z" stroke="#F7760E" fill="none" stroke-width="1"></path></g><g transform="translate(209 233)"><path d="M50.5 -17.1C57.3 4.6 49.1 30.4 31 43.9C12.9 57.3 -15.1 58.3 -33.2 45.3C-51.2 32.3 -59.3 5.2 -52.1 -17C-44.9 -39.1 -22.5 -56.3 -0.3 -56.2C21.9 -56.1 43.7 -38.7 50.5 -17.1Z" stroke="#F7760E" fill="none" stroke-width="1"></path></g><g transform="translate(724 169)"><path d="M62.1 -20.7C70.2 4.7 59.3 35.7 37.4 51.7C15.4 67.7 -17.6 68.7 -37.2 53.8C-56.8 38.9 -63 8.2 -54.6 -17.7C-46.1 -43.6 -23.1 -64.7 2 -65.3C27 -65.9 54.1 -46.1 62.1 -20.7Z" stroke="#F7760E" fill="none" stroke-width="1"></path></g></g></svg>